<svg xmlns="http://www.w3.org/2000/svg" version="1.1" xmlns:xlink="http://www.w3.org/1999/xlink" width="512" height="512" x="0" y="0" viewBox="0 0 512 512" style="enable-background:new 0 0 512 512" xml:space="preserve"><g><path fill="#FFF5F5" d="M259.818 496.893c-130.317 0-236.339-106.022-236.339-236.339S129.5 24.215 259.818 24.215s236.339 106.022 236.339 236.339-106.022 236.339-236.339 236.339z" opacity="1" data-original="#fff5f5"></path><path fill="#ECE6F2" d="M259.818 24.215h-.003v472.678h.003c130.317 0 236.339-106.022 236.339-236.339S390.135 24.215 259.818 24.215z" opacity="1" data-original="#ece6f2"></path><path fill="#293565" d="M402.998 263.973a15.234 15.234 0 0 0-12.756-6.907h-75.241c-8.413 0-15.234 6.82-15.234 15.233s6.82 15.233 15.234 15.233h51.904L316.174 402.94c-3.386 7.702.113 16.69 7.815 20.076a15.172 15.172 0 0 0 6.122 1.292c5.858-.001 11.445-3.4 13.953-9.107l60.122-136.771a15.231 15.231 0 0 0-1.188-14.457z" opacity="1" data-original="#293565"></path><g fill="#414C7F"><path d="M179.552 250.786c-.072 8.413 6.689 15.292 15.102 15.364h.134c8.351 0 15.158-6.735 15.23-15.102.041-4.715.117-13.889.202-25.265h2.359c8.413 0 15.233-6.82 15.233-15.233s-6.82-15.233-15.233-15.233h-2.155c.191-32.854.291-68.079-.115-72.957-.904-10.832-7.408-19.665-16.573-22.503-9.093-2.817-18.765.713-25.874 9.436-7.768 9.53-43.685 74.281-54.508 93.899a15.234 15.234 0 0 0 13.338 22.592h53.059c-.065 8.851-.133 17.344-.199 25.002zm-26.975-55.469c10.214-18.27 20.179-35.802 27.553-48.395-.003 13.037-.075 30.392-.18 48.395zM90.562 268.511c8.413-.106 15.147-7.011 15.041-15.424-.105-8.347-6.905-15.042-15.229-15.042l-.195.001a3959.57 3959.57 0 0 1-41.159.311c7.619-10.178 18.295-24.748 32.816-45.496 8.721-12.46 14.407-24.232 16.9-34.986.402-2.204.999-6.497 1.07-8.731 0-27.697-22.533-50.231-50.231-50.231-23.948 0-44.677 17.037-49.288 40.511-1.622 8.255 3.756 16.262 12.012 17.884 8.254 1.621 16.262-3.757 17.884-12.012 1.811-9.222 9.967-15.916 19.392-15.916 10.618 0 19.308 8.417 19.746 18.93l-.43 3.365c-1.713 6.792-5.753 14.767-12.016 23.717-21.668 30.96-34.598 47.89-41.545 56.986-8.51 11.142-12.393 16.228-9.791 24.689 1.527 4.964 5.287 8.773 10.317 10.45 2.058.686 4.029 1.345 30.362 1.345 10.443-.001 24.72-.105 44.344-.351z" fill="#414C7F" opacity="1" data-original="#414c7f"></path></g><g fill="#85EAFD"><path d="M54.409 338.978c-2.946-7.88-11.726-11.879-19.604-8.933-7.881 2.947-11.88 11.723-8.933 19.604a253.037 253.037 0 0 0 15.848 34.307c3.055 5.492 9.004 8.357 14.884 7.75a15.188 15.188 0 0 0 5.834-1.844c7.352-4.09 9.996-13.366 5.906-20.718a222.589 222.589 0 0 1-13.935-30.166zM134.558 442.544a219.407 219.407 0 0 1-25.696-21.007c-6.091-5.804-15.733-5.572-21.537.519s-5.572 15.733.519 21.537a249.956 249.956 0 0 0 29.277 23.935 15.173 15.173 0 0 0 10.276 2.662 15.202 15.202 0 0 0 10.935-6.435c4.814-6.899 3.125-16.395-3.774-21.211zM226.284 479.608a221.192 221.192 0 0 1-32.305-7.715c-8.013-2.565-16.588 1.853-19.151 9.867-2.564 8.013 1.854 16.587 9.867 19.151a251.516 251.516 0 0 0 36.772 8.78c1.349.216 2.685.248 3.982.114 6.691-.691 12.354-5.789 13.468-12.747 1.33-8.307-4.326-16.12-12.633-17.45z" fill="#85EAFD" opacity="1" data-original="#85eafd"></path></g><path fill="#54C4FC" d="M324.776 472.861a221.642 221.642 0 0 1-32.282 7.206c-8.326 1.212-14.092 8.944-12.879 17.269 1.181 8.111 8.55 13.793 16.628 12.959.213-.022.428-.049.642-.08a252.293 252.293 0 0 0 36.734-8.199c8.051-2.442 12.598-10.948 10.157-18.999-2.443-8.051-10.955-12.596-19-10.156z" opacity="1" data-original="#54c4fc"></path><path fill="#85EAFD" d="M491.266 162.27C464.671 100.747 415.709 53.262 353.4 28.565c-59.493-23.582-124.439-23.54-183.049-.753l4.14-7.092c3.535-6.055 1.491-13.829-4.564-17.363-6.055-3.536-13.83-1.491-17.363 4.564l-27.968 47.915a12.694 12.694 0 0 0 9.279 18.982l54.99 7.362c1.017.136 2.021.148 2.998.047 5.702-.589 10.474-5.013 11.268-10.945.93-6.949-3.949-13.336-10.898-14.267l-9.587-1.284c51.157-19.52 107.698-19.388 159.527 1.155 54.743 21.7 97.76 63.418 121.126 117.471 23.365 54.054 24.283 113.971 2.584 168.714-17.697 44.648-48.619 81.492-89.419 106.547-7.17 4.403-9.413 13.783-5.01 20.953 3.168 5.159 8.911 7.766 14.556 7.184 2.2-.227 4.386-.939 6.396-2.174 46.455-28.527 81.658-70.466 101.801-121.283 24.697-62.308 23.653-130.505-2.941-192.028z" opacity="1" data-original="#85eafd"></path><path fill="#54C4FC" d="M491.266 162.27C464.671 100.747 415.709 53.262 353.4 28.564c-30.531-12.101-62.498-17.965-94.308-17.742v30.481c28.022-.226 56.186 4.924 83.081 15.584 54.743 21.699 97.76 63.418 121.126 117.471 23.365 54.054 24.283 113.971 2.584 168.714-17.697 44.648-48.619 81.491-89.419 106.547-7.17 4.402-9.413 13.783-5.01 20.953 3.168 5.159 8.911 7.766 14.556 7.184 2.2-.227 4.386-.939 6.396-2.174 46.455-28.527 81.658-70.466 101.801-121.283 24.697-62.309 23.653-130.507-2.941-192.029z" opacity="1" data-original="#54c4fc"></path><path fill="#85EAFD" d="M292.652 171.967c-7.821-3.112-16.675.707-19.786 8.525l-54.398 136.771c-3.109 7.818.708 16.676 8.525 19.785a15.18 15.18 0 0 0 5.625 1.082c6.057 0 11.785-3.637 14.159-9.608l54.399-136.771c3.11-7.817-.707-16.675-8.524-19.784z" opacity="1" data-original="#85eafd"></path><path fill="#54C4FC" d="M292.652 171.967c-7.821-3.112-16.675.707-19.786 8.525l-13.043 32.795v82.439l41.354-103.974c3.109-7.818-.708-16.676-8.525-19.785z" opacity="1" data-original="#54c4fc"></path></g></svg>