<svg id="megaphone" xmlns="http://www.w3.org/2000/svg" width="87.014" height="93.23" viewBox="0 0 87.014 93.23">
  <path id="Path_585" data-name="Path 585" d="M40.814,71.109l-8.8,8.763a9.36,9.36,0,0,1-13.208,0l-8.8-8.8a9.377,9.377,0,0,1,0-13.176l8.8-8.8ZM82.55,46.9,42.989,7.369a3.014,3.014,0,0,0-2.642-.9,3.133,3.133,0,0,0-2.3,1.616L20.241,41.741l28,28L81.8,51.841a3.072,3.072,0,0,0,1.618-2.269A3.148,3.148,0,0,0,82.55,46.9ZM14.429,84.255l-8.8-8.8a14.816,14.816,0,0,1-2.921-4.1,12.413,12.413,0,0,0,15.85,15.85,14.232,14.232,0,0,1-4.134-2.953ZM50.7,80.96l-5.469-5.469L36.4,84.285a14.532,14.532,0,0,1-2.423,1.959l5.718,5.718a7.8,7.8,0,0,0,11,0,7.824,7.824,0,0,0,0-11ZM61.045,10.324V4.108a3.108,3.108,0,0,0-6.215,0v6.215a3.108,3.108,0,0,0,6.215,0ZM89.014,32.076a3.107,3.107,0,0,0-3.108-3.108H79.691a3.108,3.108,0,1,0,0,6.215h6.215A3.107,3.107,0,0,0,89.014,32.076ZM72.565,21.843l6.215-6.215a3.107,3.107,0,0,0-4.394-4.394l-6.215,6.215a3.107,3.107,0,1,0,4.395,4.394Z" transform="translate(-2.001 -1.001)" fill="#d63116"/>
</svg>
