<svg xmlns="http://www.w3.org/2000/svg" version="1.1" xmlns:xlink="http://www.w3.org/1999/xlink" width="512" height="512" x="0" y="0" viewBox="0 0 496 496" style="enable-background:new 0 0 512 512" xml:space="preserve" class=""><g><path fill="#EDEDED" d="M272 344h120v144H248V296zM248 488H104V344h120l24-48zm0 0" opacity="1" data-original="#d3a06c" class=""></path><path fill="#FFFFFF" d="m392 296 24 48H272l-24-48zM248 296l-24 48H80l24-48zm0 0" opacity="1" data-original="#dfb28b" class=""></path><path fill="#FFFFFF" d="m376 152 16 32c-15.922 10.64-30.078 23.602-42 38.559L336 240l3.04-24.32a95.38 95.38 0 0 1 12-35.602C357.28 169.281 365.761 159.68 376 152zM156.96 215.68 160 240l-14-17.441c-11.922-14.957-26.078-27.918-42-38.559l16-32c10.238 7.68 18.719 17.281 24.96 28.078a95.38 95.38 0 0 1 12 35.602zm0 0" opacity="1" data-original="#fcd770" class=""></path><g fill="#FF826E"><path d="M456 130.32 448 144l-1.2 16-14.8-3.762L417.2 160l-1.2-16-8-13.68 14.078-6.082L432 112l9.922 12.238zM296 60.64 280 88l-2.32 32-29.68-7.52-29.68 7.52L216 88l-16-27.36 28.238-12.16L248 24l19.762 24.48zM88 130.32 80 144l-1.2 16-14.8-3.762L49.2 160 48 144l-8-13.68 14.078-6.082L64 112l9.922 12.238zm0 0" fill="#FFFFFF" opacity="1" data-original="#ff826e" class=""></path></g><path d="M396.945 288H99.055l-32 64H96v144h304V352h28.945zm-9.89 16 16 32h-126.11l-16-32zm-278.11 0h126.11l-16 32H92.945zM384 480H256v-56h-16v56H112V352h116.945L240 329.887V400h16v-70.113L267.055 352H384zm0 0" fill="#B72024" opacity="1" data-original="#000000" class=""></path><path d="M128 416h48v16h-48zM128 448h48v16h-48zM192 448h16v16h-16zM211.055 130.113 248 120.695l36.945 9.41 2.895-39.671 19.625-33.524-34.711-15.023L248 11.28l-24.762 30.606-34.71 15.023 19.624 33.524zM233.207 55 248 36.719l14.793 18.289 21.742 9.418-12.375 21.14-1.777 24.329L248 104.19l-22.383 5.696-1.777-24.328-12.375-21.145zM87.84 146.441l11.625-19.847-20.594-8.922L64 99.282l-14.871 18.382-20.594 8.922 11.625 19.848 1.719 23.671L64 164.48l22.129 5.633zm-15.68-4.882-.61 8.328-7.55-1.918-7.543 1.918-.617-8.328-4.375-7.48 7.625-3.302L64 124.72l4.902 6.066 7.625 3.305zM455.84 146.441l11.625-19.847-20.594-8.922L432 99.282l-14.871 18.382-20.594 8.922 11.625 19.848 1.719 23.671L432 164.48l22.129 5.633zm-15.68-4.882-.61 8.328-7.55-1.918-7.543 1.918-.61-8.328-4.374-7.48 7.625-3.302L432 124.72l4.902 6.066 7.625 3.305zM99.559 190.656a177.411 177.411 0 0 1 40.203 36.864l31.687 39.593-6.554-52.418c-3.422-27.367-18.04-52.558-40.102-69.101l-7.664-5.746-23.45 46.886zm23.058-26c13.528 12.801 22.703 29.84 25.848 48.274a193.709 193.709 0 0 0-34.207-31.555zM331.105 214.695l-6.554 52.418 31.687-39.601a177.576 177.576 0 0 1 40.203-36.864l5.872-3.921-23.45-46.887-7.664 5.762c-22.054 16.543-36.68 41.726-40.094 69.093zm50.637-33.32a193.143 193.143 0 0 0-34.207 31.555c3.153-18.434 12.32-35.473 25.848-48.274zM280 272h16v-33.52c0-38.425 13.543-75.832 38.152-105.359l-12.297-10.242C294.863 155.273 280 196.329 280 238.48zM336 96h16v16h-16zM360 64h16v16h-16zM200 272h16v-33.52c0-42.16-14.863-83.207-41.848-115.601l-12.297 10.242C186.457 162.648 200 200.055 200 238.481zM144 96h16v16h-16zM120 64h16v16h-16zM240 136h16v16h-16zM240 168h16v104h-16zM464 216h16v16h-16zM464 248h16v16h-16zM480 232h16v16h-16zM448 232h16v16h-16zM440 0h16v16h-16zM440 32h16v16h-16zM456 16h16v16h-16zM424 16h16v16h-16zM16 248h16v16H16zM16 280h16v16H16zM32 264h16v16H32zM0 264h16v16H0zM16 0h16v16H16zM16 32h16v16H16zM32 16h16v16H32zM0 16h16v16H0zm0 0" fill="#B72024" opacity="1" data-original="#000000" class=""></path></g></svg>