<svg xmlns="http://www.w3.org/2000/svg" width="64" height="64" viewBox="0 0 64 64">
  <g id="svgexport-18" transform="translate(-0.245 -0.245)">
    <g id="Layer_2" data-name="Layer 2">
      <g id="_09.whatsapp" data-name="09.whatsapp">
        <circle id="Ellipse_1542" data-name="Ellipse 1542" cx="32" cy="32" r="32" transform="translate(0.245 0.245)" fill="#29a71a"/>
        <g id="Group_76562" data-name="Group 76562" transform="translate(12.256 12.101)">
          <path id="Path_25626" data-name="Path 25626" d="M67.654,38.951A20,20,0,0,0,35.621,62.083L33.5,72.384a.762.762,0,0,0,.121.6.773.773,0,0,0,.821.319l10.095-2.393A19.992,19.992,0,0,0,67.654,38.951ZM64.506,64.073A15.661,15.661,0,0,1,46.471,67l-1.407-.7-6.189,1.466.018-.077,1.282-6.229-.689-1.359A15.654,15.654,0,0,1,64.506,41.938a.835.835,0,0,0,.081.081A15.654,15.654,0,0,1,64.506,64.073Z" transform="translate(-33.447 -33.024)" fill="#fff"/>
          <path id="Path_25627" data-name="Path 25627" d="M81.1,77.393c-.758,1.195-1.957,2.657-3.463,3.019-2.638.638-6.687.022-11.725-4.676l-.062-.055c-4.43-4.108-5.581-7.526-5.3-10.238A6.48,6.48,0,0,1,63.07,61.6a1.44,1.44,0,0,1,2.253.517l1.631,3.664a1.433,1.433,0,0,1-.18,1.466l-.824,1.07a1.418,1.418,0,0,0-.128,1.583,15.406,15.406,0,0,0,2.8,3.1,16.317,16.317,0,0,0,3.873,2.774,1.4,1.4,0,0,0,1.535-.322l.956-.964a1.466,1.466,0,0,1,1.429-.366l3.873,1.1a1.466,1.466,0,0,1,.821,2.166Z" transform="translate(-50.596 -50.913)" fill="#fff"/>
        </g>
      </g>
    </g>
  </g>
</svg>
