<svg id="amex" xmlns="http://www.w3.org/2000/svg" width="41.623" height="41.623" viewBox="0 0 41.623 41.623">
  <path id="Path_2" data-name="Path 2" d="M15,16V57.623H56.623V16H15Z" transform="translate(-15 -16)" fill="#fff"/>
  <path id="Path_3" data-name="Path 3" d="M49.2,26.212l1.332-3.621h6.091V16H15V57.623H56.623V51.047H50.879l-2.123-2.484-2.206,2.484H30.234V37.825H24.851L31.58,22.59h6.549l1.582,3.455V22.59h8.13l1.36,3.621Zm-4.592,2.4-.014-1.457.555,1.457,2.706,7.229h2.692l2.719-7.229.527-1.443V35.84h2.83v-11.1h-4.7l-2.137,5.633L49.214,31.9l-.583-1.526-2.151-5.633h-4.7v11.1h2.83V28.612ZM38.517,35.84h3.261l-4.884-11.1H33.106l-4.912,11.1h3.219l.86-2.137h5.383l.86,2.137ZM34.41,28.5l.555-1.387L35.52,28.5l1.152,2.8H33.259l1.152-2.8Zm-1.9,9.337V48.9h9.268V46.5H35.34V44.568h6.313V42.181H35.34V40.239h6.438v-2.4ZM52.086,48.9h3.677l-5.189-5.55,5.189-5.508H52.142L48.8,41.432l-3.33-3.594H41.778l5.175,5.55L41.778,48.9h3.58l3.372-3.607L52.086,48.9Zm1.4-5.564,3.136,3.191V40.183l-3.136,3.149Z" transform="translate(-15 -16)" fill="#006fcf"/>
</svg>
