<svg xmlns="http://www.w3.org/2000/svg" width="55.716" height="34.409" viewBox="0 0 55.716 34.409">
  <g id="Group_76559" data-name="Group 76559" transform="translate(-3.608 -3.606)">
    <rect id="Rectangle_40" data-name="Rectangle 40" width="16.798" height="26.943" transform="translate(23.07 7.338)" fill="#ff5f00"/>
    <path id="Path_4" data-name="Path 4" d="M29.01,24.653a17.085,17.085,0,0,1,6.664-13.522,17.628,17.628,0,0,0-23.6,1.855,17.023,17.023,0,0,0,0,23.339,17.628,17.628,0,0,0,23.6,1.855A17.085,17.085,0,0,1,29.01,24.653Z" transform="translate(-3.837 -3.842)" fill="#eb001b"/>
    <path id="Path_6" data-name="Path 6" d="M93.922,24.646A17.181,17.181,0,0,1,84.1,40.117,17.653,17.653,0,0,1,65.69,38.168a17.051,17.051,0,0,0,0-27.049A17.653,17.653,0,0,1,84.1,9.17a17.181,17.181,0,0,1,9.823,15.471Z" transform="translate(-34.598 -3.834)" fill="#f79e1b"/>
  </g>
</svg>
