<svg xmlns="http://www.w3.org/2000/svg" xmlns:xlink="http://www.w3.org/1999/xlink" width="222" height="221" viewBox="0 0 222 221">
  <defs>
    <linearGradient id="linear-gradient" x1="0.5" x2="0.5" y2="1" gradientUnits="objectBoundingBox">
      <stop offset="0" stop-color="#364576"/>
      <stop offset="1" stop-color="#536dc2"/>
    </linearGradient>
  </defs>
  <g id="Group_1081" data-name="Group 1081" transform="translate(0.478 -0.444)">
    <g id="Ellipse_340" data-name="Ellipse 340" transform="translate(-0.478 0.444)" fill="#fff" stroke="#f8f8f8" stroke-width="1">
      <ellipse cx="111" cy="110.5" rx="111" ry="110.5" stroke="none"/>
      <ellipse cx="111" cy="110.5" rx="110.5" ry="110" fill="none"/>
    </g>
    <g id="Ellipse_341" data-name="Ellipse 341" transform="translate(9.522 9.444)" stroke="#3192d9" stroke-width="3" fill="url(#linear-gradient)">
      <circle cx="101" cy="101" r="101" stroke="none"/>
      <circle cx="101" cy="101" r="99.5" fill="none"/>
    </g>
    <g id="clean" transform="translate(59.575 66.444)">
      <path id="Path_56" data-name="Path 56" d="M9.711,29.8a14.94,14.94,0,0,1,9.378,9.378,2.572,2.572,0,0,0,4.884,0A14.94,14.94,0,0,1,33.352,29.8a2.572,2.572,0,0,0,0-4.884,14.94,14.94,0,0,1-9.378-9.378,2.572,2.572,0,0,0-4.884,0,14.94,14.94,0,0,1-9.378,9.378,2.572,2.572,0,0,0,0,4.884Zm39.573-2.44a2.571,2.571,0,0,0,2.571,2.571h2.937v2.937a2.571,2.571,0,1,0,5.142,0V29.926H62.87a2.571,2.571,0,0,0,0-5.142H59.934V21.848a2.571,2.571,0,1,0-5.142,0v2.937H51.855a2.571,2.571,0,0,0-2.571,2.571ZM38.086,10.65h2.937v2.937a2.571,2.571,0,0,0,5.142,0V10.65H49.1a2.571,2.571,0,1,0,0-5.142H46.164V2.571a2.571,2.571,0,0,0-5.142,0V5.508H38.086a2.571,2.571,0,1,0,0,5.142ZM51.052,77.514a13.068,13.068,0,0,0,5.128-1.993c.092-.062.179-.129.268-.193l4.674-23.371H62.87a2.571,2.571,0,1,0,0-5.142H13.3a2.571,2.571,0,1,0,0,5.142h1.748l4.616,23.079a4.307,4.307,0,0,0,.747-.6L36.268,58.583A2.571,2.571,0,0,1,39.9,62.219L24.048,78.075A9.745,9.745,0,0,1,20.7,80.224L21.8,85.69a2.571,2.571,0,0,0,2.521,2.067H44.581a7.72,7.72,0,0,1,6.472-10.242Z" fill="#fff"/>
      <path id="Path_57" data-name="Path 57" d="M15.9,75.365a4.26,4.26,0,0,1-2.637-3.949,4.072,4.072,0,0,1,.281-1.489l-1.292-6.46L10.818,64.9a9.159,9.159,0,0,0-2.7,6.521,9.386,9.386,0,0,0,5.812,8.7,9.143,9.143,0,0,0,6.914.108l-1.037-5.188a4.258,4.258,0,0,1-3.909.329ZM82.106,47.358V2.571a2.571,2.571,0,1,0-5.142,0V47.358a18.737,18.737,0,0,1,5.142,0Zm-2.571,4.965A13.6,13.6,0,0,0,65.949,65.909c0,15.131-13.846,16.68-14.208,16.718A2.571,2.571,0,0,0,52,87.757H71.273c19.361,0,21.848-14.575,21.848-21.848A13.6,13.6,0,0,0,79.535,52.323Z" transform="translate(-0.142)" fill="#fff"/>
    </g>
  </g>
</svg>
