<svg xmlns="http://www.w3.org/2000/svg" xmlns:xlink="http://www.w3.org/1999/xlink" width="143.378" height="132.332" viewBox="0 0 143.378 132.332">
  <defs>
    <radialGradient id="radial-gradient" cx="0.229" cy="0.446" r="0.617" gradientUnits="objectBoundingBox">
      <stop offset="0" stop-color="#ff4904"/>
      <stop offset="0" stop-color="#d43e24"/>
      <stop offset="0.47" stop-color="#ff4904"/>
      <stop offset="1" stop-color="#b72024"/>
    </radialGradient>
  </defs>
  <g id="logo_01" data-name="logo 01" transform="translate(-2.653 7.72)">
    <g id="Layer_2" data-name="Layer 2" transform="translate(2.523 -7.72)">
      <g id="OBJECTS">
        <g id="Group_4" data-name="Group 4">
          <line id="Line_1" data-name="Line 1" x2="143.378" transform="translate(0.13 77.635)" fill="none" stroke="#364576" stroke-width="1"/>
          <g id="Group_7" data-name="Group 7" transform="translate(0.133)">
            <path id="Path_11" data-name="Path 11" d="M161.306,77.692c.163-1.98.269-3.979.269-6a71.687,71.687,0,1,0-143.375,0c0,2.022.106,4.021.269,6h142.84Z" transform="translate(-18.2)" fill="url(#radial-gradient)"/>
            <path id="Path_12" data-name="Path 12" d="M30.866,85.395q-.262-2.964-.266-6a66.984,66.984,0,0,1,133.968,0q0,3.033-.266,6" transform="translate(-25.897 -7.703)" fill="none" stroke="#fff" stroke-width="1"/>
            <path id="Path_24" data-name="Path 24" d="M79.825,91.628a29.1,29.1,0,1,1,57.646,5.659h31.512V85.969L155.715,82.32a47.4,47.4,0,0,0-6.672-16.458l6.907-12.145-8.557-8.557-11.959,6.8a47.5,47.5,0,0,0-16.363-6.941l-3.7-13.45h-12.1L99.62,44.838A47.4,47.4,0,0,0,83.162,51.51L71.017,44.6,62.46,53.163l6.8,11.959A47.5,47.5,0,0,0,62.32,81.486l-13.45,3.7v12.1H80.382a29.278,29.278,0,0,1-.554-5.659Z" transform="translate(-37.237 -19.596)" fill="#f5f6f7"/>
            <path id="Path_25" data-name="Path 25" d="M197.78,174.8a12.691,12.691,0,1,0-22.7,0Z" transform="translate(-114.744 -97.109)" fill="#fff"/>
            <path id="Path_26" data-name="Path 26" d="M181.234,129.849a40.16,40.16,0,1,0-79.509,0h79.512Z" transform="translate(-69.793 -52.158)" fill="none" stroke="#a5b8b8" stroke-width="1"/>
            <path id="Path_27" data-name="Path 27" d="M185.454,128.738,151.287,81.8,117.12,128.738Z" transform="translate(-79.6 -50.773)" fill="#364576"/>
            <path id="Path_28" data-name="Path 28" d="M185.913,128.45l-17.6-24.18-17.6,24.18-6.164,8.466v15.449a173.924,173.924,0,0,1,47.526,0V136.916Z" transform="translate(-96.626 -64.721)" fill="#f5f6f7"/>
            <g id="Group_3" data-name="Group 3" transform="translate(63.745 60.805)">
              <rect id="Rectangle_2" data-name="Rectangle 2" width="6.733" height="8.345" fill="#364576"/>
              <rect id="Rectangle_3" data-name="Rectangle 3" width="6.733" height="8.345" transform="translate(9.152)" fill="#364576"/>
              <rect id="Rectangle_4" data-name="Rectangle 4" width="6.733" height="8.345" transform="translate(0 9.964)" fill="#364576"/>
              <rect id="Rectangle_5" data-name="Rectangle 5" width="6.733" height="8.345" transform="translate(9.152 9.964)" fill="#364576"/>
            </g>
          </g>
          <rect id="Rectangle_6" data-name="Rectangle 6" width="119.338" height="21.459" transform="translate(12 110.873)" fill="#364576"/>
          <g id="Group_5" data-name="Group 5" transform="translate(30 113.087)">
            <path id="Path_1" data-name="Path 1" d="M108.772,302.966h.033c1.713,0,2.6-1.456,2.6-3.58v-8.779a.461.461,0,0,1,.919,0v8.62c0,2.534-1.2,4.658-3.547,4.658h-.065c-2.03,0-3.421-1.741-3.421-3.991a.444.444,0,0,1,.887,0c0,1.741.98,3.075,2.6,3.075Z" transform="translate(-105.29 -287.958)" fill="#fff"/>
            <path id="Path_2" data-name="Path 2" d="M125.844,298.287V290.11a.461.461,0,1,1,.919,0v8.112c0,1.269.6,1.521,1.741,1.521v.854h-.35a2.165,2.165,0,0,1-2.315-2.315Z" transform="translate(-117.48 -287.62)" fill="#fff"/>
            <path id="Path_3" data-name="Path 3" d="M144.954,299.921l-.126.443h-.854a1.6,1.6,0,0,1-1.582-.761,2.2,2.2,0,0,1-1.774.761H131.46l-.22-.854H133.4v-9.824a.46.46,0,1,1,.919,0v5.451a4.173,4.173,0,0,1,4.023-2.632c2.917,0,4.564,2.124,4.564,4.882v.476c0,1.172.224,1.648,1.078,1.648h.854l.126.411Zm-2.978-2.534c0-4.625-5.642-5.484-7.351-1.456-.317.728-.285,1.521-.317,3.58h6.273a1.375,1.375,0,0,0,1.4-1.554Z" transform="translate(-120.683 -287.383)" fill="#fff"/>
            <path id="Path_4" data-name="Path 4" d="M171.637,305.17H163.46l-.22-.411.22-.443h2.5a6.024,6.024,0,0,1-.22-2.124c0-2.884,1.713-4.882,4.593-4.882h.7a.447.447,0,1,1,0,.887h-.7c-2.441,0-3.706,1.713-3.678,3.991,0,2-.033,2.124,1.363,2.124h3.612a.427.427,0,1,1,0,.854Z" transform="translate(-139.665 -292.187)" fill="#fff"/>
            <path id="Path_5" data-name="Path 5" d="M195.928,287.208v8.051a2.223,2.223,0,0,1-2.343,2.441h-2.693a2.3,2.3,0,0,1-2.156-1.4.439.439,0,1,1,.826-.285,1.5,1.5,0,0,0,1.363.826h2.567a1.413,1.413,0,0,0,1.521-1.582v-8.051a.46.46,0,1,1,.919,0Zm-5.354-.094h.508a1.486,1.486,0,0,1,2.189-2c.252.252-.033.7-.35.443a.9.9,0,0,0-1.554.476c0,.7.285,1.078.7,1.078h.98a.3.3,0,0,1,0,.6H190.6a.3.3,0,1,1-.033-.6ZM192.1,289.4v5.736c0,.569-.952.6-.952,0V289.4A.477.477,0,1,1,192.1,289.4Z" transform="translate(-154.767 -284.718)" fill="#fff"/>
            <path id="Path_6" data-name="Path 6" d="M210.68,290.067a.479.479,0,0,1,.952,0v10.077a.476.476,0,0,1-.952,0Z" transform="translate(-167.806 -287.638)" fill="#fff"/>
            <path id="Path_7" data-name="Path 7" d="M235.5,302.127v3.043H228.08a1.591,1.591,0,0,0-1.521,1.774,1.9,1.9,0,0,0,2.058,1.871.419.419,0,0,1,.411.476.5.5,0,0,1-.443.378,2.763,2.763,0,0,1-2.884-2.726,2.5,2.5,0,0,1,2.091-2.6.4.4,0,0,1,.191-.033h6.59v-2.058c0-2.441-1.269-4.056-3.706-4.056a3.709,3.709,0,0,0-2.819,1.2.382.382,0,0,1-.57-.509,4.437,4.437,0,0,1,3.486-1.583C233.783,297.31,235.5,299.242,235.5,302.127Z" transform="translate(-176.716 -292.187)" fill="#fff"/>
            <path id="Path_8" data-name="Path 8" d="M262.376,300.2l-.159.443h-.854a1.6,1.6,0,0,1-1.582-.761,2.468,2.468,0,0,1-1.839.761h-2.661a2.371,2.371,0,0,1-2.185-1.4.451.451,0,1,1,.854-.285,1.462,1.462,0,0,0,1.363.826h2.534a1.4,1.4,0,0,0,1.521-1.583v-8.051a.476.476,0,1,1,.952,0v7.986c0,1.172.191,1.648,1.046,1.648h.854l.159.411Zm-6.847-2.124v-5.736a.477.477,0,1,1,.952,0v5.736C256.482,298.646,255.53,298.679,255.53,298.077Z" transform="translate(-192.95 -287.661)" fill="#fff"/>
            <path id="Path_9" data-name="Path 9" d="M284.664,302.188v.6a2.212,2.212,0,0,1-2.315,2.376h-8.905l-.224-.411.224-.443h1.741v-5.988a.444.444,0,0,1,.887.033v.854a4.9,4.9,0,0,1,3.995-1.9c2.945,0,4.593,2.124,4.593,4.882Zm-.919,0c0-4.532-5.642-5.354-7.668-1.68v3.8h6.245a1.4,1.4,0,0,0,1.424-1.554Z" transform="translate(-204.904 -292.187)" fill="#fff"/>
            <path id="Path_10" data-name="Path 10" d="M303.355,303.494h.509c-1.013-1.741.854-3.137,2.156-2a.261.261,0,1,1-.317.411c-.667-.509-1.521-.191-1.554.508s.285,1.078.7,1.078h.984a.285.285,0,0,1,0,.569h-2.473A.288.288,0,1,1,303.355,303.494Zm.7-13.437a.479.479,0,0,1,.952,0v10.077a.476.476,0,0,1-.952,0Z" transform="translate(-222.583 -287.632)" fill="#fff"/>
          </g>
          <g id="Group_6" data-name="Group 6" transform="translate(12.158 87.645)">
            <path id="Path_14" data-name="Path 14" d="M72.582,229.983c1.281,0,1.424,1.424.334,2.416-5.167,4.552-12.375.334-12.375-7.062,0-5.215,3.177-8.677,7.489-8.677,2.608,0,6.212,1.469,5.309,2.986-.757,1.326-2.656-.712-5.215-.712-3.128,0-5.215,2.372-5.215,6.4s1.847,6.541,5.024,6.541,3.747-1.9,4.646-1.9Z" transform="translate(-60.54 -216.66)" fill="#364576"/>
            <path id="Path_15" data-name="Path 15" d="M99.58,240.516V230.041a1.137,1.137,0,1,1,2.274,0v1.233a7.572,7.572,0,0,1,4.267-1.847,1.022,1.022,0,1,1-.142,2.038,5.808,5.808,0,0,0-4.125,2.087v6.969a1,1,0,0,1-1.041,1.041h-.191a1,1,0,0,1-1.041-1.041Z" transform="translate(-83.698 -223.922)" fill="#364576"/>
            <path id="Path_16" data-name="Path 16" d="M118.81,237.655c0-3.556,3.649-4.5,7.16-3.791V233.1c0-1.041-.757-2.274-4.076-1.753-1.611.236-1.847-1.9-.094-2.087,4.552-.427,6.354,1.233,6.354,3.84l.049,5.024c.049,3.7-2.986,3.555-5.309,3.555a3.727,3.727,0,0,1-4.076-4.032Zm7.062,1V236c-2.323-.57-4.931-.236-4.931,1.753,0,1.281.757,1.9,2.087,1.9,2.087,0,2.844-.236,2.844-1Z" transform="translate(-95.105 -224.096)" fill="#364576"/>
            <path id="Path_17" data-name="Path 17" d="M147.23,240.848a1.45,1.45,0,0,1-.57-1V239.8c0-.854.805-1.184,1.66-.614a4.326,4.326,0,0,0,2.75.757c1.753,0,2.7-.57,2.7-1.847,0-1.09-.712-1.326-2.844-1.847-2.75-.663-3.934-1.66-3.934-3.6,0-2.087,1.709-3.507,4.361-3.507a7.136,7.136,0,0,1,3.271.757c1.326.806.476,2.608-.9,1.66a5.57,5.57,0,0,0-2.372-.521c-1.611,0-2.323.476-2.323,1.517s.57,1.326,2.465,1.7c3.084.761,4.312,1.66,4.312,3.747,0,2.465-1.8,3.84-4.695,3.84a6.787,6.787,0,0,1-3.889-1Z" transform="translate(-111.626 -224.063)" fill="#364576"/>
            <path id="Path_18" data-name="Path 18" d="M174.16,233.948V219.205c0-.854.427-1.375,1.09-1.375.757,0,1.184.476,1.184,1.375v4.5a5.781,5.781,0,0,1,3.747-1.281c3.035,0,4.979,2.132,4.979,6.448v5.073a1,1,0,0,1-1.041,1.041h-.236a.993.993,0,0,1-1.041-1.041v-4.882c0-3.128-1.139-4.5-2.8-4.5-1.424,0-2.372.712-3.6,2.038v7.347a1,1,0,0,1-1.041,1.041h-.191a1,1,0,0,1-1.041-1.041Z" transform="translate(-127.938 -217.354)" fill="#364576"/>
            <path id="Path_19" data-name="Path 19" d="M217.458,233.4c0,3.507-3.649,4.455-7.16,3.791v.757c0,1.041.712,2.274,5.166,1.709a1.051,1.051,0,1,1,.094,2.087c-5.642.476-7.489-1.184-7.489-3.792v-5.024c-.049-3.7,2.986-3.556,5.309-3.556a3.748,3.748,0,0,1,4.076,4.032Zm-7.062-1v2.656c2.323.57,4.931.236,4.931-1.753,0-1.326-.757-1.9-2.087-1.9-2.087,0-2.844.191-2.844,1Z" transform="translate(-148.052 -224.198)" fill="#364576"/>
            <path id="Path_20" data-name="Path 20" d="M235.09,240.848a1.45,1.45,0,0,1-.57-1V239.8c0-.854.805-1.184,1.66-.614a4.317,4.317,0,0,0,2.75.757c1.753,0,2.7-.57,2.7-1.847,0-1.09-.712-1.326-2.844-1.847-2.75-.663-3.934-1.66-3.934-3.6,0-2.087,1.709-3.507,4.361-3.507a7.136,7.136,0,0,1,3.271.757c1.326.806.476,2.608-.9,1.66a5.57,5.57,0,0,0-2.372-.521c-1.611,0-2.323.476-2.323,1.517s.57,1.326,2.465,1.7c3.079.761,4.312,1.66,4.312,3.747,0,2.465-1.8,3.84-4.695,3.84a6.8,6.8,0,0,1-3.889-1Z" transform="translate(-163.743 -224.063)" fill="#364576"/>
            <path id="Path_21" data-name="Path 21" d="M276.59,233.805V218.969a1.124,1.124,0,0,1,1.139-1.139H285.6a1.09,1.09,0,0,1,0,2.181h-6.684v5.451h5.118a1.066,1.066,0,1,1,0,2.132h-5.118v6.212A1.163,1.163,0,1,1,276.59,233.805Z" transform="translate(-188.699 -217.354)" fill="#364576"/>
            <path id="Path_22" data-name="Path 22" d="M310.383,233.754a1.162,1.162,0,1,1-2.323,0V218.917a1.162,1.162,0,1,1,2.323,0Z" transform="translate(-207.366 -217.302)" fill="#364576"/>
            <path id="Path_23" data-name="Path 23" d="M320.724,233.667l4.931-7.4-5.024-7.489c-.757-1.281,1.184-2.274,2.087-.805l4.552,6.875,4.41-6.826c1.09-1.66,3.08-.521,2.132.805l-4.931,7.4,4.979,7.489c.806,1.281-1.184,2.18-2.038.805l-4.5-6.875-4.5,6.875c-.9,1.326-3.035.476-2.087-.854Z" transform="translate(-214.721 -216.98)" fill="#364576"/>
          </g>
        </g>
      </g>
    </g>
  </g>
</svg>
