<svg xmlns="http://www.w3.org/2000/svg" xmlns:xlink="http://www.w3.org/1999/xlink" width="323.707" height="290.855" viewBox="0 0 323.707 290.855">
  <defs>
    <radialGradient id="radial-gradient" cx="0.229" cy="0.446" r="0.617" gradientUnits="objectBoundingBox">
      <stop offset="0" stop-color="#ff4904"/>
      <stop offset="0" stop-color="#d43e24"/>
      <stop offset="0.47" stop-color="#ff4904"/>
      <stop offset="1" stop-color="#b72024"/>
    </radialGradient>
  </defs>
  <g id="logo_01" data-name="logo 01" transform="translate(-0.293)">
    <g id="Layer_2" data-name="Layer 2" transform="translate(0)">
      <g id="OBJECTS">
        <g id="Group_4" data-name="Group 4">
          <line id="Line_1" data-name="Line 1" x2="323.707" transform="translate(0.293 175.279)" fill="none" stroke="#364576" stroke-width="1"/>
          <g id="Group_7" data-name="Group 7" transform="translate(0.3)">
            <path id="Path_11" data-name="Path 11" d="M341.292,175.406c.368-4.47.608-8.983.608-13.547a161.85,161.85,0,1,0-323.7-.009c0,4.564.24,9.077.608,13.547H341.3Z" transform="translate(-18.2)" fill="url(#radial-gradient)"/>
            <path id="Path_12" data-name="Path 12" d="M31.2,177.189q-.591-6.692-.6-13.556a151.231,151.231,0,0,1,302.462.009q0,6.847-.6,13.556" transform="translate(-19.981 -1.783)" fill="none" stroke="#fff" stroke-width="1"/>
            <path id="Path_24" data-name="Path 24" d="M118.757,167.164A65.7,65.7,0,1,1,248.9,179.941H320.05V154.387l-29.955-8.238a107.026,107.026,0,0,0-15.063-37.157l15.594-27.42L271.306,62.253l-27,15.354a107.246,107.246,0,0,0-36.943-15.671L199.014,31.57H171.687l-8.238,29.955a107.027,107.027,0,0,0-37.157,15.063L98.872,60.994,79.553,80.322l15.354,27a107.247,107.247,0,0,0-15.671,36.943L48.87,152.615v27.326h71.145a66.1,66.1,0,0,1-1.25-12.777Z" transform="translate(-22.606 -4.535)" fill="#fff"/>
            <path id="Path_25" data-name="Path 25" d="M228.015,197.88a28.653,28.653,0,1,0-51.244,0Z" transform="translate(-40.544 -22.474)" fill="#fff"/>
            <path id="Path_26" data-name="Path 26" d="M281.744,187.477a90.67,90.67,0,1,0-179.508,0H281.753Z" transform="translate(-30.14 -12.071)" fill="none" stroke="#a5b8b8" stroke-width="1"/>
            <path id="Path_27" data-name="Path 27" d="M271.4,187.773,194.26,81.8,117.12,187.773Z" transform="translate(-32.41 -11.751)" fill="#364576"/>
            <path id="Path_28" data-name="Path 28" d="M237.935,158.862,198.2,104.27l-39.735,54.592L144.55,177.976v34.879a392.672,392.672,0,0,1,107.3,0V177.976Z" transform="translate(-36.35 -14.979)" fill="#fff"/>
            <g id="Group_3" data-name="Group 3" transform="translate(143.918 137.281)">
              <rect id="Rectangle_2" data-name="Rectangle 2" width="15.2" height="18.84" fill="#364576"/>
              <rect id="Rectangle_3" data-name="Rectangle 3" width="15.2" height="18.84" transform="translate(20.664)" fill="#364576"/>
              <rect id="Rectangle_4" data-name="Rectangle 4" width="15.2" height="18.84" transform="translate(0 22.496)" fill="#364576"/>
              <rect id="Rectangle_5" data-name="Rectangle 5" width="15.2" height="18.84" transform="translate(20.664 22.496)" fill="#364576"/>
            </g>
          </g>
          <rect id="Rectangle_6" data-name="Rectangle 6" width="269.432" height="48.449" transform="translate(27.449 242.407)" fill="#364576"/>
          <g id="Group_5" data-name="Group 5" transform="translate(68.295 247.404)">
            <path id="Path_1" data-name="Path 1" d="M113.152,319.047h.074c3.867,0,5.869-3.288,5.869-8.082v-19.82a1.041,1.041,0,0,1,2.076,0v19.462c0,5.722-2.719,10.516-8.009,10.516h-.147c-4.583,0-7.724-3.931-7.724-9.01a1,1,0,0,1,2,0c0,3.931,2.213,6.944,5.869,6.944Z" transform="translate(-105.29 -285.163)" fill="#fff"/>
            <path id="Path_2" data-name="Path 2" d="M125.849,309.2V290.74a1.042,1.042,0,1,1,2.076,0v18.314c0,2.866,1.359,3.435,3.931,3.435v1.929h-.79c-3.077,0-5.153-1.864-5.226-5.226Z" transform="translate(-106.966 -285.117)" fill="#fff"/>
            <path id="Path_3" data-name="Path 3" d="M162.2,313.393l-.285,1h-1.929c-1.864,0-2.93-.569-3.573-1.718a4.977,4.977,0,0,1-4,1.718H131.736l-.5-1.929h4.868V290.285a1.038,1.038,0,1,1,2.076,0v12.307a9.421,9.421,0,0,1,9.084-5.942c6.585,0,10.305,4.794,10.305,11.022v1.075c0,2.645.505,3.72,2.434,3.72h1.929l.285.928Zm-6.723-5.722c0-10.443-12.739-12.381-16.6-3.288-.716,1.644-.643,3.435-.716,8.083h14.163c2.149,0,3.15-1.571,3.15-3.509Z" transform="translate(-107.406 -285.084)" fill="#fff"/>
            <path id="Path_4" data-name="Path 4" d="M182.2,315.055H163.736l-.5-.928.5-1h5.649a13.6,13.6,0,0,1-.5-4.794c0-6.512,3.867-11.022,10.369-11.022h1.571a1.008,1.008,0,1,1,0,2h-1.571c-5.511,0-8.367,3.867-8.3,9.01,0,4.51-.073,4.794,3.077,4.794h8.156a.964.964,0,1,1,0,1.929Z" transform="translate(-110.015 -285.745)" fill="#fff"/>
            <path id="Path_5" data-name="Path 5" d="M205.021,290.341v18.176c0,3.435-2,5.437-5.29,5.511h-6.08a5.189,5.189,0,0,1-4.868-3.15.991.991,0,1,1,1.864-.643,3.382,3.382,0,0,0,3.077,1.864h5.8c2.507,0,3.435-1.644,3.435-3.573V290.35a1.038,1.038,0,1,1,2.076,0Zm-12.087-.211h1.148c-2.287-3.931,2-7.008,4.941-4.51.569.57-.074,1.571-.79,1-1.433-1.212-3.435-.505-3.508,1.075,0,1.571.643,2.434,1.57,2.434h2.213a.68.68,0,0,1,0,1.359H193a.682.682,0,1,1-.074-1.359Zm3.435,5.153v12.95c0,1.286-2.149,1.359-2.149,0v-12.95A1.076,1.076,0,1,1,196.369,295.282Z" transform="translate(-112.091 -284.718)" fill="#fff"/>
            <path id="Path_6" data-name="Path 6" d="M210.68,290.6a1.081,1.081,0,0,1,2.149,0v22.75a1.075,1.075,0,0,1-2.149,0Z" transform="translate(-113.883 -285.119)" fill="#fff"/>
            <path id="Path_7" data-name="Path 7" d="M247.817,308.185v6.87H231.073c-2.149,0-3.435,1.791-3.435,4,0,2.572,2.076,4.225,4.647,4.225a.947.947,0,0,1,.928,1.075,1.134,1.134,0,0,1-1,.854,6.239,6.239,0,0,1-6.512-6.154c0-2.93,1.929-5.584,4.721-5.869a.9.9,0,0,1,.432-.073h14.879v-4.647c0-5.511-2.866-9.157-8.367-9.157A8.374,8.374,0,0,0,231,302.031a.862.862,0,0,1-1.286-1.148,10.018,10.018,0,0,1,7.871-3.573C243.95,297.31,247.817,301.673,247.817,308.185Z" transform="translate(-115.108 -285.744)" fill="#fff"/>
            <path id="Path_8" data-name="Path 8" d="M274.084,313.431l-.358,1H271.8c-1.855,0-2.93-.569-3.573-1.718a5.572,5.572,0,0,1-4.151,1.718h-6.007a5.354,5.354,0,0,1-4.932-3.15,1.019,1.019,0,1,1,1.929-.643,3.3,3.3,0,0,0,3.077,1.865h5.722c2.572,0,3.435-1.644,3.435-3.573V290.755a1.075,1.075,0,1,1,2.149,0v18.029c0,2.645.432,3.72,2.36,3.72h1.929l.358.928Zm-15.458-4.794v-12.95a1.076,1.076,0,1,1,2.149,0v12.95C260.776,309.923,258.626,310,258.626,308.637Z" transform="translate(-117.34 -285.122)" fill="#fff"/>
            <path id="Path_9" data-name="Path 9" d="M299.056,308.322v1.359c-.147,3.508-2.223,5.364-5.226,5.364H273.725l-.505-.928.505-1h3.931V299.6a1,1,0,0,1,2,.073V301.6a11.066,11.066,0,0,1,9.019-4.289c6.65,0,10.37,4.794,10.37,11.022Zm-2.076,0c0-10.232-12.739-12.087-17.313-3.793v8.588h14.1c2.149,0,3.215-1.571,3.215-3.509Z" transform="translate(-118.983 -285.744)" fill="#fff"/>
            <path id="Path_10" data-name="Path 10" d="M303.773,320.931h1.148c-2.287-3.931,1.929-7.081,4.868-4.51a.589.589,0,1,1-.716.928c-1.506-1.148-3.435-.432-3.509,1.148s.643,2.434,1.571,2.434h2.223a.643.643,0,0,1,0,1.286h-5.584A.651.651,0,1,1,303.773,320.931Zm1.57-30.337a1.081,1.081,0,0,1,2.149,0v22.75a1.075,1.075,0,0,1-2.149,0Z" transform="translate(-121.413 -285.118)" fill="#fff"/>
          </g>
          <g id="Group_6" data-name="Group 6" transform="translate(27.449 189.963)">
            <path id="Path_14" data-name="Path 14" d="M87.726,246.74c2.893,0,3.215,3.215.753,5.456-11.665,10.278-27.94.753-27.94-15.945,0-11.775,7.173-19.591,16.909-19.591,5.887,0,14.025,3.316,11.986,6.742-1.708,2.994-6-1.607-11.775-1.607-7.063,0-11.775,5.355-11.775,14.447s4.17,14.769,11.343,14.769,8.459-4.28,10.489-4.28Z" transform="translate(-60.54 -216.66)" fill="#364576"/>
            <path id="Path_15" data-name="Path 15" d="M99.58,255.122v-23.65a2.567,2.567,0,1,1,5.134,0v2.783c2.461-2.03,6.319-4.17,9.635-4.17,2.893,0,2.994,4.6-.321,4.6-3.1,0-6.641,1.708-9.313,4.712v15.733a2.247,2.247,0,0,1-2.351,2.351h-.432a2.247,2.247,0,0,1-2.351-2.351Z" transform="translate(-63.723 -217.658)" fill="#364576"/>
            <path id="Path_16" data-name="Path 16" d="M118.81,248.294c0-8.027,8.239-10.167,16.165-8.56v-1.717c0-2.351-1.708-5.134-9.2-3.959-3.637.533-4.17-4.28-.211-4.712,10.278-.964,14.346,2.783,14.346,8.67l.11,11.343c.11,8.349-6.741,8.027-11.986,8.027-5.777,0-9.2-3.426-9.2-9.1Zm15.945,2.25v-6c-5.244-1.286-11.132-.533-11.132,3.959,0,2.893,1.708,4.28,4.712,4.28,4.712,0,6.42-.533,6.42-2.25Z" transform="translate(-65.291 -217.682)" fill="#364576"/>
            <path id="Path_17" data-name="Path 17" d="M147.946,255.573a3.274,3.274,0,0,1-1.286-2.25v-.11c0-1.929,1.819-2.673,3.747-1.387a9.766,9.766,0,0,0,6.209,1.708c3.959,0,6.1-1.286,6.1-4.17,0-2.462-1.607-2.994-6.42-4.17-6.209-1.5-8.882-3.747-8.882-8.138,0-4.712,3.858-7.917,9.846-7.917a16.111,16.111,0,0,1,7.384,1.708c2.994,1.819,1.075,5.887-2.03,3.747a12.575,12.575,0,0,0-5.355-1.176c-3.637,0-5.244,1.075-5.244,3.426s1.286,2.994,5.566,3.848c6.962,1.718,9.736,3.747,9.736,8.459,0,5.566-4.069,8.67-10.6,8.67-3.637,0-6.962-.854-8.781-2.25Z" transform="translate(-67.562 -217.678)" fill="#364576"/>
            <path id="Path_18" data-name="Path 18" d="M174.16,254.219V220.934c0-1.929.964-3.1,2.461-3.1,1.708,0,2.673,1.075,2.673,3.1V231.1a13.051,13.051,0,0,1,8.459-2.893c6.852,0,11.242,4.813,11.242,14.558v11.453a2.247,2.247,0,0,1-2.351,2.351h-.533a2.242,2.242,0,0,1-2.351-2.351V243.2c0-7.063-2.572-10.167-6.319-10.167-3.215,0-5.355,1.607-8.138,4.6v16.587a2.247,2.247,0,0,1-2.351,2.351h-.432a2.247,2.247,0,0,1-2.351-2.351Z" transform="translate(-69.804 -216.755)" fill="#364576"/>
            <path id="Path_19" data-name="Path 19" d="M229.268,238.463c0,7.917-8.239,10.057-16.165,8.56v1.708c0,2.351,1.607,5.134,11.664,3.858,3.316-.533,3.858,4.39.211,4.712-12.739,1.075-16.909-2.673-16.909-8.56V237.4c-.11-8.349,6.742-8.027,11.986-8.027,5.676,0,9.2,3.426,9.2,9.1Zm-15.944-2.25v6c5.244,1.286,11.132.533,11.132-3.958,0-2.994-1.708-4.28-4.712-4.28-4.712,0-6.42.432-6.42,2.25Z" transform="translate(-72.569 -217.696)" fill="#364576"/>
            <path id="Path_20" data-name="Path 20" d="M235.806,255.573a3.274,3.274,0,0,1-1.286-2.25v-.11c0-1.929,1.818-2.673,3.747-1.387a9.746,9.746,0,0,0,6.209,1.708c3.958,0,6.1-1.286,6.1-4.17,0-2.462-1.607-2.994-6.42-4.17-6.209-1.5-8.881-3.747-8.881-8.138,0-4.712,3.857-7.917,9.846-7.917a16.11,16.11,0,0,1,7.384,1.708c2.994,1.819,1.075,5.887-2.03,3.747a12.574,12.574,0,0,0-5.355-1.176c-3.637,0-5.245,1.075-5.245,3.426s1.286,2.994,5.566,3.848c6.953,1.718,9.736,3.747,9.736,8.459,0,5.566-4.069,8.67-10.6,8.67-3.637,0-6.953-.854-8.781-2.25Z" transform="translate(-74.726 -217.678)" fill="#364576"/>
            <path id="Path_21" data-name="Path 21" d="M276.59,253.9V220.4a2.538,2.538,0,0,1,2.572-2.572h17.763c3.215,0,3.215,4.923,0,4.923h-15.09V235.06h11.554a2.406,2.406,0,1,1,0,4.813H281.834V253.9A2.626,2.626,0,1,1,276.59,253.9Z" transform="translate(-78.156 -216.755)" fill="#364576"/>
            <path id="Path_22" data-name="Path 22" d="M313.3,253.891a2.622,2.622,0,1,1-5.244,0v-33.5a2.622,2.622,0,1,1,5.244,0Z" transform="translate(-80.723 -216.748)" fill="#364576"/>
            <path id="Path_23" data-name="Path 23" d="M321.057,254.379l11.132-16.7-11.343-16.909c-1.709-2.893,2.673-5.134,4.712-1.819l10.278,15.522,9.956-15.412c2.461-3.747,6.953-1.176,4.813,1.818l-11.132,16.7,11.242,16.909c1.819,2.893-2.673,4.923-4.6,1.819l-10.167-15.522-10.167,15.522c-2.03,2.994-6.852,1.075-4.712-1.929Z" transform="translate(-81.734 -216.704)" fill="#364576"/>
          </g>
        </g>
      </g>
    </g>
  </g>
</svg>
